<mxfile host="app.diagrams.net" modified="2023-07-29T13:38:26.776Z" agent="Mozilla/5.0 (Windows NT 10.0; Win64; x64) AppleWebKit/537.36 (KHTML, like Gecko) Chrome/115.0.0.0 Safari/537.36" etag="adKaBFnI2Ain9zS_6Gai" version="21.6.6" type="github">
  <diagram id="XrhWSROPCsUjW4TECVwA" name="페이지-1">
    <mxGraphModel dx="2514" dy="1994" grid="1" gridSize="10" guides="1" tooltips="1" connect="1" arrows="1" fold="1" page="1" pageScale="1" pageWidth="827" pageHeight="1169" math="0" shadow="0">
      <root>
        <mxCell id="0" />
        <mxCell id="1" parent="0" />
        <mxCell id="kzf7kpEG-t8ONK1DFKBZ-11" style="edgeStyle=orthogonalEdgeStyle;rounded=0;orthogonalLoop=1;jettySize=auto;html=1;exitX=0.5;exitY=1;exitDx=0;exitDy=0;exitPerimeter=0;entryX=0.5;entryY=0;entryDx=0;entryDy=0;entryPerimeter=0;" edge="1" parent="1" source="kzf7kpEG-t8ONK1DFKBZ-29" target="kzf7kpEG-t8ONK1DFKBZ-5">
          <mxGeometry relative="1" as="geometry">
            <mxPoint x="310" y="-620" as="sourcePoint" />
          </mxGeometry>
        </mxCell>
        <mxCell id="kzf7kpEG-t8ONK1DFKBZ-12" value="Yes (기존회원)" style="edgeStyle=orthogonalEdgeStyle;rounded=0;orthogonalLoop=1;jettySize=auto;html=1;exitX=0;exitY=0.5;exitDx=0;exitDy=0;exitPerimeter=0;entryX=0.5;entryY=0;entryDx=0;entryDy=0;entryPerimeter=0;" edge="1" parent="1" source="kzf7kpEG-t8ONK1DFKBZ-5" target="kzf7kpEG-t8ONK1DFKBZ-6">
          <mxGeometry relative="1" as="geometry">
            <Array as="points">
              <mxPoint x="40" y="-540" />
            </Array>
          </mxGeometry>
        </mxCell>
        <mxCell id="kzf7kpEG-t8ONK1DFKBZ-13" value="No (신규회원)" style="edgeStyle=orthogonalEdgeStyle;rounded=0;orthogonalLoop=1;jettySize=auto;html=1;exitX=1;exitY=0.5;exitDx=0;exitDy=0;exitPerimeter=0;entryX=0.59;entryY=-0.017;entryDx=0;entryDy=0;entryPerimeter=0;" edge="1" parent="1" source="kzf7kpEG-t8ONK1DFKBZ-5" target="kzf7kpEG-t8ONK1DFKBZ-7">
          <mxGeometry relative="1" as="geometry" />
        </mxCell>
        <mxCell id="kzf7kpEG-t8ONK1DFKBZ-5" value="회원 여부" style="strokeWidth=2;html=1;shape=mxgraph.flowchart.decision;whiteSpace=wrap;" vertex="1" parent="1">
          <mxGeometry x="270" y="-580" width="80" height="80" as="geometry" />
        </mxCell>
        <mxCell id="kzf7kpEG-t8ONK1DFKBZ-27" style="edgeStyle=orthogonalEdgeStyle;rounded=0;orthogonalLoop=1;jettySize=auto;html=1;exitX=0.5;exitY=1;exitDx=0;exitDy=0;exitPerimeter=0;entryX=0.5;entryY=0;entryDx=0;entryDy=0;entryPerimeter=0;" edge="1" parent="1" source="kzf7kpEG-t8ONK1DFKBZ-6" target="kzf7kpEG-t8ONK1DFKBZ-9">
          <mxGeometry relative="1" as="geometry" />
        </mxCell>
        <mxCell id="kzf7kpEG-t8ONK1DFKBZ-6" value="로그인 화면" style="strokeWidth=2;html=1;shape=mxgraph.flowchart.display;whiteSpace=wrap;" vertex="1" parent="1">
          <mxGeometry x="-10" y="-500" width="100" height="60" as="geometry" />
        </mxCell>
        <mxCell id="kzf7kpEG-t8ONK1DFKBZ-44" style="edgeStyle=orthogonalEdgeStyle;rounded=0;orthogonalLoop=1;jettySize=auto;html=1;exitX=0.5;exitY=1;exitDx=0;exitDy=0;exitPerimeter=0;entryX=0.5;entryY=0;entryDx=0;entryDy=0;" edge="1" parent="1" source="kzf7kpEG-t8ONK1DFKBZ-7" target="kzf7kpEG-t8ONK1DFKBZ-46">
          <mxGeometry relative="1" as="geometry">
            <mxPoint x="520" y="-400" as="targetPoint" />
          </mxGeometry>
        </mxCell>
        <mxCell id="kzf7kpEG-t8ONK1DFKBZ-7" value="회원가입 화면" style="strokeWidth=2;html=1;shape=mxgraph.flowchart.display;whiteSpace=wrap;" vertex="1" parent="1">
          <mxGeometry x="510" y="-490" width="100" height="60" as="geometry" />
        </mxCell>
        <mxCell id="kzf7kpEG-t8ONK1DFKBZ-28" value="No" style="edgeStyle=orthogonalEdgeStyle;rounded=0;orthogonalLoop=1;jettySize=auto;html=1;exitX=0.5;exitY=1;exitDx=0;exitDy=0;exitPerimeter=0;entryX=0.5;entryY=0;entryDx=0;entryDy=0;" edge="1" parent="1" source="kzf7kpEG-t8ONK1DFKBZ-9" target="kzf7kpEG-t8ONK1DFKBZ-20">
          <mxGeometry relative="1" as="geometry" />
        </mxCell>
        <mxCell id="kzf7kpEG-t8ONK1DFKBZ-31" value="Yes" style="edgeStyle=orthogonalEdgeStyle;rounded=0;orthogonalLoop=1;jettySize=auto;html=1;exitX=1;exitY=0.5;exitDx=0;exitDy=0;exitPerimeter=0;entryX=0;entryY=0.5;entryDx=0;entryDy=0;" edge="1" parent="1" source="kzf7kpEG-t8ONK1DFKBZ-9" target="kzf7kpEG-t8ONK1DFKBZ-82">
          <mxGeometry relative="1" as="geometry">
            <mxPoint x="260" y="-445" as="targetPoint" />
          </mxGeometry>
        </mxCell>
        <mxCell id="kzf7kpEG-t8ONK1DFKBZ-9" value="SNS 로그인&lt;br&gt;여부" style="strokeWidth=2;html=1;shape=mxgraph.flowchart.decision;whiteSpace=wrap;" vertex="1" parent="1">
          <mxGeometry x="-5" y="-410" width="90" height="90" as="geometry" />
        </mxCell>
        <mxCell id="kzf7kpEG-t8ONK1DFKBZ-23" style="edgeStyle=orthogonalEdgeStyle;rounded=0;orthogonalLoop=1;jettySize=auto;html=1;entryX=0.5;entryY=0;entryDx=0;entryDy=0;entryPerimeter=0;" edge="1" parent="1" source="kzf7kpEG-t8ONK1DFKBZ-20" target="kzf7kpEG-t8ONK1DFKBZ-22">
          <mxGeometry relative="1" as="geometry" />
        </mxCell>
        <mxCell id="kzf7kpEG-t8ONK1DFKBZ-20" value="ID / PW 입력" style="shape=parallelogram;html=1;strokeWidth=2;perimeter=parallelogramPerimeter;whiteSpace=wrap;rounded=1;arcSize=12;size=0.23;" vertex="1" parent="1">
          <mxGeometry x="-10" y="-280" width="100" height="60" as="geometry" />
        </mxCell>
        <mxCell id="kzf7kpEG-t8ONK1DFKBZ-24" value="No &lt;br&gt;(로그인 실패)" style="edgeStyle=orthogonalEdgeStyle;rounded=0;orthogonalLoop=1;jettySize=auto;html=1;exitX=1;exitY=0.5;exitDx=0;exitDy=0;exitPerimeter=0;entryX=1;entryY=0.5;entryDx=0;entryDy=0;" edge="1" parent="1" source="kzf7kpEG-t8ONK1DFKBZ-22" target="kzf7kpEG-t8ONK1DFKBZ-20">
          <mxGeometry relative="1" as="geometry">
            <Array as="points">
              <mxPoint x="120" y="-90" />
              <mxPoint x="120" y="-250" />
            </Array>
          </mxGeometry>
        </mxCell>
        <mxCell id="kzf7kpEG-t8ONK1DFKBZ-58" value="Yes" style="edgeStyle=orthogonalEdgeStyle;rounded=0;orthogonalLoop=1;jettySize=auto;html=1;exitX=0.5;exitY=1;exitDx=0;exitDy=0;exitPerimeter=0;entryX=0;entryY=0.5;entryDx=0;entryDy=0;" edge="1" parent="1" source="kzf7kpEG-t8ONK1DFKBZ-22" target="kzf7kpEG-t8ONK1DFKBZ-60">
          <mxGeometry relative="1" as="geometry">
            <mxPoint x="180" y="-50" as="targetPoint" />
            <Array as="points">
              <mxPoint x="40" y="45" />
            </Array>
          </mxGeometry>
        </mxCell>
        <mxCell id="kzf7kpEG-t8ONK1DFKBZ-22" value="ID/PW &lt;br&gt;형식 확인" style="strokeWidth=2;html=1;shape=mxgraph.flowchart.decision;whiteSpace=wrap;" vertex="1" parent="1">
          <mxGeometry y="-130" width="80" height="80" as="geometry" />
        </mxCell>
        <mxCell id="kzf7kpEG-t8ONK1DFKBZ-29" value="로그인/가입" style="strokeWidth=2;html=1;shape=mxgraph.flowchart.terminator;whiteSpace=wrap;" vertex="1" parent="1">
          <mxGeometry x="260" y="-670" width="100" height="40" as="geometry" />
        </mxCell>
        <mxCell id="kzf7kpEG-t8ONK1DFKBZ-35" value="휘찬님&lt;br&gt;작업물 연결 부" style="text;html=1;strokeColor=none;fillColor=none;align=center;verticalAlign=middle;whiteSpace=wrap;rounded=0;" vertex="1" parent="1">
          <mxGeometry x="220" y="-400" width="110" height="30" as="geometry" />
        </mxCell>
        <mxCell id="kzf7kpEG-t8ONK1DFKBZ-43" style="edgeStyle=orthogonalEdgeStyle;rounded=0;orthogonalLoop=1;jettySize=auto;html=1;exitX=0.5;exitY=1;exitDx=0;exitDy=0;exitPerimeter=0;entryX=0.5;entryY=0;entryDx=0;entryDy=0;" edge="1" parent="1" target="kzf7kpEG-t8ONK1DFKBZ-42">
          <mxGeometry relative="1" as="geometry">
            <mxPoint x="275" y="-310" as="sourcePoint" />
          </mxGeometry>
        </mxCell>
        <mxCell id="kzf7kpEG-t8ONK1DFKBZ-57" value="No &lt;br&gt;(회원 가입 페이지 이동)" style="edgeStyle=orthogonalEdgeStyle;rounded=0;orthogonalLoop=1;jettySize=auto;html=1;exitX=1;exitY=0.5;exitDx=0;exitDy=0;entryX=0;entryY=0.25;entryDx=0;entryDy=0;" edge="1" parent="1" source="kzf7kpEG-t8ONK1DFKBZ-42" target="kzf7kpEG-t8ONK1DFKBZ-54">
          <mxGeometry relative="1" as="geometry">
            <mxPoint x="470" y="-160" as="targetPoint" />
            <Array as="points">
              <mxPoint x="380" y="-240" />
              <mxPoint x="380" y="-122" />
            </Array>
          </mxGeometry>
        </mxCell>
        <mxCell id="kzf7kpEG-t8ONK1DFKBZ-59" value="Yes" style="edgeStyle=orthogonalEdgeStyle;rounded=0;orthogonalLoop=1;jettySize=auto;html=1;exitX=0.5;exitY=1;exitDx=0;exitDy=0;entryX=0.5;entryY=0;entryDx=0;entryDy=0;" edge="1" parent="1" source="kzf7kpEG-t8ONK1DFKBZ-42" target="kzf7kpEG-t8ONK1DFKBZ-60">
          <mxGeometry relative="1" as="geometry">
            <mxPoint x="180" y="-50" as="targetPoint" />
          </mxGeometry>
        </mxCell>
        <mxCell id="kzf7kpEG-t8ONK1DFKBZ-42" value="SNS가입이 &lt;br&gt;완료 된 회원인가?" style="rhombus;whiteSpace=wrap;html=1;" vertex="1" parent="1">
          <mxGeometry x="235" y="-280" width="80" height="80" as="geometry" />
        </mxCell>
        <mxCell id="kzf7kpEG-t8ONK1DFKBZ-50" style="edgeStyle=orthogonalEdgeStyle;rounded=0;orthogonalLoop=1;jettySize=auto;html=1;exitX=0.5;exitY=1;exitDx=0;exitDy=0;entryX=0.5;entryY=0;entryDx=0;entryDy=0;entryPerimeter=0;" edge="1" parent="1" source="kzf7kpEG-t8ONK1DFKBZ-46" target="kzf7kpEG-t8ONK1DFKBZ-49">
          <mxGeometry relative="1" as="geometry" />
        </mxCell>
        <mxCell id="kzf7kpEG-t8ONK1DFKBZ-46" value="이메일 / 닉네임&lt;br&gt;프로필 이미지&lt;br&gt;등" style="shape=parallelogram;html=1;strokeWidth=2;perimeter=parallelogramPerimeter;whiteSpace=wrap;rounded=1;arcSize=12;size=0.23;" vertex="1" parent="1">
          <mxGeometry x="500" y="-390" width="120" height="60" as="geometry" />
        </mxCell>
        <mxCell id="kzf7kpEG-t8ONK1DFKBZ-51" value="No (재입력)" style="edgeStyle=orthogonalEdgeStyle;rounded=0;orthogonalLoop=1;jettySize=auto;html=1;exitX=0;exitY=0.5;exitDx=0;exitDy=0;exitPerimeter=0;entryX=0;entryY=0.5;entryDx=0;entryDy=0;" edge="1" parent="1" source="kzf7kpEG-t8ONK1DFKBZ-49" target="kzf7kpEG-t8ONK1DFKBZ-46">
          <mxGeometry relative="1" as="geometry">
            <Array as="points">
              <mxPoint x="460" y="-235" />
              <mxPoint x="460" y="-360" />
            </Array>
          </mxGeometry>
        </mxCell>
        <mxCell id="kzf7kpEG-t8ONK1DFKBZ-53" value="Yes" style="edgeStyle=orthogonalEdgeStyle;rounded=0;orthogonalLoop=1;jettySize=auto;html=1;exitX=0.5;exitY=1;exitDx=0;exitDy=0;exitPerimeter=0;" edge="1" parent="1" source="kzf7kpEG-t8ONK1DFKBZ-49" target="kzf7kpEG-t8ONK1DFKBZ-54">
          <mxGeometry relative="1" as="geometry">
            <mxPoint x="510" y="-140" as="targetPoint" />
          </mxGeometry>
        </mxCell>
        <mxCell id="kzf7kpEG-t8ONK1DFKBZ-68" style="edgeStyle=orthogonalEdgeStyle;rounded=0;orthogonalLoop=1;jettySize=auto;html=1;exitX=1;exitY=0.5;exitDx=0;exitDy=0;exitPerimeter=0;entryX=-0.011;entryY=0.167;entryDx=0;entryDy=0;entryPerimeter=0;" edge="1" parent="1" source="kzf7kpEG-t8ONK1DFKBZ-49" target="kzf7kpEG-t8ONK1DFKBZ-66">
          <mxGeometry relative="1" as="geometry" />
        </mxCell>
        <mxCell id="kzf7kpEG-t8ONK1DFKBZ-49" value="유효성 체크" style="strokeWidth=2;html=1;shape=mxgraph.flowchart.decision;whiteSpace=wrap;" vertex="1" parent="1">
          <mxGeometry x="515" y="-280" width="90" height="90" as="geometry" />
        </mxCell>
        <mxCell id="kzf7kpEG-t8ONK1DFKBZ-69" style="edgeStyle=orthogonalEdgeStyle;rounded=0;orthogonalLoop=1;jettySize=auto;html=1;exitX=0.5;exitY=1;exitDx=0;exitDy=0;" edge="1" parent="1" source="kzf7kpEG-t8ONK1DFKBZ-54">
          <mxGeometry relative="1" as="geometry">
            <mxPoint x="560" y="-30" as="targetPoint" />
          </mxGeometry>
        </mxCell>
        <mxCell id="kzf7kpEG-t8ONK1DFKBZ-54" value="회원 정보 입력" style="shape=parallelogram;perimeter=parallelogramPerimeter;whiteSpace=wrap;html=1;fixedSize=1;" vertex="1" parent="1">
          <mxGeometry x="500" y="-140" width="120" height="60" as="geometry" />
        </mxCell>
        <mxCell id="kzf7kpEG-t8ONK1DFKBZ-60" value="" style="ellipse;whiteSpace=wrap;html=1;aspect=fixed;" vertex="1" parent="1">
          <mxGeometry x="260" y="30" width="30" height="30" as="geometry" />
        </mxCell>
        <mxCell id="kzf7kpEG-t8ONK1DFKBZ-61" value="메인 페이지 연결 부" style="text;html=1;strokeColor=none;fillColor=none;align=center;verticalAlign=middle;whiteSpace=wrap;rounded=0;" vertex="1" parent="1">
          <mxGeometry x="315" y="30" width="110" height="30" as="geometry" />
        </mxCell>
        <mxCell id="kzf7kpEG-t8ONK1DFKBZ-64" value="고려 사항" style="swimlane;fontStyle=0;childLayout=stackLayout;horizontal=1;startSize=30;horizontalStack=0;resizeParent=1;resizeParentMax=0;resizeLast=0;collapsible=1;marginBottom=0;whiteSpace=wrap;html=1;" vertex="1" parent="1">
          <mxGeometry x="670" y="-300" width="190" height="180" as="geometry">
            <mxRectangle x="670" y="-300" width="90" height="30" as="alternateBounds" />
          </mxGeometry>
        </mxCell>
        <mxCell id="kzf7kpEG-t8ONK1DFKBZ-65" value="- 이메일 형식 / 중복 검사 등" style="text;strokeColor=none;fillColor=none;align=left;verticalAlign=middle;spacingLeft=4;spacingRight=4;overflow=hidden;points=[[0,0.5],[1,0.5]];portConstraint=eastwest;rotatable=0;whiteSpace=wrap;html=1;" vertex="1" parent="kzf7kpEG-t8ONK1DFKBZ-64">
          <mxGeometry y="30" width="190" height="30" as="geometry" />
        </mxCell>
        <mxCell id="kzf7kpEG-t8ONK1DFKBZ-66" value="&lt;span style=&quot;color: rgb(0, 0, 0); font-family: Helvetica; font-size: 12px; font-style: normal; font-variant-ligatures: normal; font-variant-caps: normal; font-weight: 400; letter-spacing: normal; orphans: 2; text-align: left; text-indent: 0px; text-transform: none; widows: 2; word-spacing: 0px; -webkit-text-stroke-width: 0px; background-color: rgb(251, 251, 251); text-decoration-thickness: initial; text-decoration-style: initial; text-decoration-color: initial; float: none; display: inline !important;&quot;&gt;- 이메일 전송 코드 검사&lt;/span&gt;&lt;br&gt;" style="text;strokeColor=none;fillColor=none;align=left;verticalAlign=middle;spacingLeft=4;spacingRight=4;overflow=hidden;points=[[0,0.5],[1,0.5]];portConstraint=eastwest;rotatable=0;whiteSpace=wrap;html=1;" vertex="1" parent="kzf7kpEG-t8ONK1DFKBZ-64">
          <mxGeometry y="60" width="190" height="30" as="geometry" />
        </mxCell>
        <mxCell id="kzf7kpEG-t8ONK1DFKBZ-67" value="- 이메일 비동기 유효성 검사" style="text;strokeColor=none;fillColor=none;align=left;verticalAlign=middle;spacingLeft=4;spacingRight=4;overflow=hidden;points=[[0,0.5],[1,0.5]];portConstraint=eastwest;rotatable=0;whiteSpace=wrap;html=1;" vertex="1" parent="kzf7kpEG-t8ONK1DFKBZ-64">
          <mxGeometry y="90" width="190" height="30" as="geometry" />
        </mxCell>
        <mxCell id="kzf7kpEG-t8ONK1DFKBZ-98" value="- 닉네임 형식 / 글자수 제한 등" style="text;strokeColor=none;fillColor=none;align=left;verticalAlign=middle;spacingLeft=4;spacingRight=4;overflow=hidden;points=[[0,0.5],[1,0.5]];portConstraint=eastwest;rotatable=0;whiteSpace=wrap;html=1;" vertex="1" parent="kzf7kpEG-t8ONK1DFKBZ-64">
          <mxGeometry y="120" width="190" height="30" as="geometry" />
        </mxCell>
        <mxCell id="kzf7kpEG-t8ONK1DFKBZ-97" value="- 이미지 업로드 시 파일 형식 등" style="text;strokeColor=none;fillColor=none;align=left;verticalAlign=middle;spacingLeft=4;spacingRight=4;overflow=hidden;points=[[0,0.5],[1,0.5]];portConstraint=eastwest;rotatable=0;whiteSpace=wrap;html=1;" vertex="1" parent="kzf7kpEG-t8ONK1DFKBZ-64">
          <mxGeometry y="150" width="190" height="30" as="geometry" />
        </mxCell>
        <mxCell id="kzf7kpEG-t8ONK1DFKBZ-71" value="Yes" style="edgeStyle=orthogonalEdgeStyle;rounded=0;orthogonalLoop=1;jettySize=auto;html=1;exitX=0.5;exitY=1;exitDx=0;exitDy=0;exitPerimeter=0;" edge="1" parent="1" source="kzf7kpEG-t8ONK1DFKBZ-70">
          <mxGeometry relative="1" as="geometry">
            <mxPoint x="560" y="110" as="targetPoint" />
          </mxGeometry>
        </mxCell>
        <mxCell id="kzf7kpEG-t8ONK1DFKBZ-72" style="edgeStyle=orthogonalEdgeStyle;rounded=0;orthogonalLoop=1;jettySize=auto;html=1;exitX=1;exitY=0.5;exitDx=0;exitDy=0;exitPerimeter=0;" edge="1" parent="1" source="kzf7kpEG-t8ONK1DFKBZ-70">
          <mxGeometry relative="1" as="geometry">
            <mxPoint x="670" y="15" as="targetPoint" />
          </mxGeometry>
        </mxCell>
        <mxCell id="kzf7kpEG-t8ONK1DFKBZ-78" value="No" style="edgeStyle=orthogonalEdgeStyle;rounded=0;orthogonalLoop=1;jettySize=auto;html=1;exitX=0;exitY=0.5;exitDx=0;exitDy=0;exitPerimeter=0;entryX=0;entryY=0.5;entryDx=0;entryDy=0;" edge="1" parent="1" source="kzf7kpEG-t8ONK1DFKBZ-70" target="kzf7kpEG-t8ONK1DFKBZ-54">
          <mxGeometry relative="1" as="geometry">
            <Array as="points">
              <mxPoint x="460" y="15" />
              <mxPoint x="460" y="-110" />
            </Array>
          </mxGeometry>
        </mxCell>
        <mxCell id="kzf7kpEG-t8ONK1DFKBZ-70" value="유효성 체크" style="strokeWidth=2;html=1;shape=mxgraph.flowchart.decision;whiteSpace=wrap;" vertex="1" parent="1">
          <mxGeometry x="515" y="-30" width="90" height="90" as="geometry" />
        </mxCell>
        <mxCell id="kzf7kpEG-t8ONK1DFKBZ-73" value="고려 사항" style="swimlane;fontStyle=0;childLayout=stackLayout;horizontal=1;startSize=30;horizontalStack=0;resizeParent=1;resizeParentMax=0;resizeLast=0;collapsible=1;marginBottom=0;whiteSpace=wrap;html=1;" vertex="1" parent="1">
          <mxGeometry x="670" y="-15" width="190" height="90" as="geometry" />
        </mxCell>
        <mxCell id="kzf7kpEG-t8ONK1DFKBZ-74" value="- 빈 항목이 없는지" style="text;strokeColor=none;fillColor=none;align=left;verticalAlign=middle;spacingLeft=4;spacingRight=4;overflow=hidden;points=[[0,0.5],[1,0.5]];portConstraint=eastwest;rotatable=0;whiteSpace=wrap;html=1;" vertex="1" parent="kzf7kpEG-t8ONK1DFKBZ-73">
          <mxGeometry y="30" width="190" height="30" as="geometry" />
        </mxCell>
        <mxCell id="kzf7kpEG-t8ONK1DFKBZ-95" value="- 휴대폰 PASS 인증 ?" style="text;strokeColor=none;fillColor=none;align=left;verticalAlign=middle;spacingLeft=4;spacingRight=4;overflow=hidden;points=[[0,0.5],[1,0.5]];portConstraint=eastwest;rotatable=0;whiteSpace=wrap;html=1;" vertex="1" parent="kzf7kpEG-t8ONK1DFKBZ-73">
          <mxGeometry y="60" width="190" height="30" as="geometry" />
        </mxCell>
        <mxCell id="kzf7kpEG-t8ONK1DFKBZ-80" value="B" style="ellipse;whiteSpace=wrap;html=1;aspect=fixed;" vertex="1" parent="1">
          <mxGeometry x="545" y="110" width="30" height="30" as="geometry" />
        </mxCell>
        <mxCell id="kzf7kpEG-t8ONK1DFKBZ-82" value="A" style="ellipse;whiteSpace=wrap;html=1;aspect=fixed;" vertex="1" parent="1">
          <mxGeometry x="260" y="-460" width="30" height="30" as="geometry" />
        </mxCell>
        <mxCell id="kzf7kpEG-t8ONK1DFKBZ-83" value="A" style="ellipse;whiteSpace=wrap;html=1;aspect=fixed;" vertex="1" parent="1">
          <mxGeometry x="260" y="-340" width="30" height="30" as="geometry" />
        </mxCell>
        <mxCell id="kzf7kpEG-t8ONK1DFKBZ-86" style="edgeStyle=orthogonalEdgeStyle;rounded=0;orthogonalLoop=1;jettySize=auto;html=1;exitX=1;exitY=0.5;exitDx=0;exitDy=0;entryX=0;entryY=0.5;entryDx=0;entryDy=0;entryPerimeter=0;" edge="1" parent="1" source="kzf7kpEG-t8ONK1DFKBZ-85" target="kzf7kpEG-t8ONK1DFKBZ-6">
          <mxGeometry relative="1" as="geometry" />
        </mxCell>
        <mxCell id="kzf7kpEG-t8ONK1DFKBZ-85" value="B" style="ellipse;whiteSpace=wrap;html=1;aspect=fixed;" vertex="1" parent="1">
          <mxGeometry x="-100" y="-485" width="30" height="30" as="geometry" />
        </mxCell>
      </root>
    </mxGraphModel>
  </diagram>
</mxfile>
